<svg width="24" height="27" viewBox="0 0 24 27" fill="none" xmlns="http://www.w3.org/2000/svg">
<path fill-rule="evenodd" clip-rule="evenodd" d="M4 10H20V22C20 24.2091 18.2091 26 16 26H8C5.79086 26 4 24.2091 4 22V10ZM9.5 13C9.77614 13 10 13.2239 10 13.5V21.5C10 21.7761 9.77614 22 9.5 22C9.22386 22 9 21.7761 9 21.5V13.5C9 13.2239 9.22386 13 9.5 13ZM15 13.5C15 13.2239 14.7761 13 14.5 13C14.2239 13 14 13.2239 14 13.5V21.5C14 21.7761 14.2239 22 14.5 22C14.7761 22 15 21.7761 15 21.5V13.5Z" fill="#FF7733"/>
<path fill-rule="evenodd" clip-rule="evenodd" d="M12 0C10.3431 0 9 1.34315 9 3H4C3.44772 3 3 3.44772 3 4C3 4.55228 3.44772 5 4 5H9H10H14H15H20C20.5523 5 21 4.55228 21 4C21 3.44772 20.5523 3 20 3H15C15 1.34315 13.6569 0 12 0ZM13 3C13 2.44772 12.5523 2 12 2C11.4477 2 11 2.44772 11 3H13Z" fill="#FF7733"/>
</svg>
